<svg width="20" height="20" viewBox="0 0 20 20" fill="none" xmlns="http://www.w3.org/2000/svg">
<path d="M11.625 2.20801C11.8237 2.20809 12.0147 2.28726 12.1553 2.42773L15.4893 5.76074C15.6298 5.90124 15.7088 6.09234 15.709 6.29102V14.958C15.709 15.5102 15.4889 16.04 15.0986 16.4307C14.708 16.8213 14.1774 17.0409 13.625 17.041H5.625C5.07258 17.0409 4.54297 16.8213 4.15234 16.4307C3.76174 16.04 3.54199 15.5105 3.54199 14.958V4.29102C3.54216 3.73872 3.7618 3.20891 4.15234 2.81836C4.54294 2.42794 5.07274 2.20809 5.625 2.20801H11.625ZM5.625 3.70801C5.47056 3.70809 5.32218 3.76979 5.21289 3.87891C5.10365 3.98815 5.04216 4.13654 5.04199 4.29102V14.958C5.04199 15.1126 5.1036 15.2607 5.21289 15.3701C5.32221 15.4794 5.47041 15.5409 5.625 15.541H13.625C13.7796 15.5409 13.9288 15.4794 14.0381 15.3701C14.1471 15.2608 14.209 15.1124 14.209 14.958V7.70801H12.291C11.7387 7.70784 11.2089 7.4882 10.8184 7.09766C10.4768 6.75593 10.2652 6.30767 10.2178 5.83105L10.208 5.625V3.70801H5.625ZM9.625 8.875C10.0392 8.875 10.375 9.21079 10.375 9.625V10.875H11.625C12.0392 10.875 12.375 11.2108 12.375 11.625C12.375 12.0392 12.0392 12.375 11.625 12.375H10.375V13.625C10.375 14.0392 10.0392 14.375 9.625 14.375C9.21079 14.375 8.875 14.0392 8.875 13.625V12.375H7.625C7.21079 12.375 6.875 12.0392 6.875 11.625C6.875 11.2108 7.21079 10.875 7.625 10.875H8.875V9.625C8.875 9.21079 9.21079 8.875 9.625 8.875ZM11.708 5.625L11.7197 5.73926C11.7422 5.85111 11.7971 5.95519 11.8789 6.03711C11.9881 6.14635 12.1365 6.20784 12.291 6.20801H13.8154L11.708 4.10059V5.625Z" fill="#8C868A"/>
</svg>
