<svg width="20" height="20" viewBox="0 0 20 20" fill="none" xmlns="http://www.w3.org/2000/svg">
<path d="M8.29102 2.875C10.5461 2.875 12.3748 4.70299 12.375 6.95801C12.375 8.23217 11.7906 9.36915 10.876 10.1182C11.508 10.4148 12.0897 10.8212 12.5928 11.3242C13.7334 12.465 14.3749 14.0118 14.375 15.625C14.3748 16.039 14.039 16.3748 13.625 16.375C13.211 16.3748 12.8752 16.039 12.875 15.625C12.8749 14.4096 12.3916 13.2442 11.5322 12.3848C10.6727 11.5252 9.50659 11.042 8.29102 11.042C7.07567 11.0422 5.91017 11.5254 5.05078 12.3848C4.19152 13.2442 3.70809 14.4097 3.70801 15.625C3.70783 16.0391 3.37211 16.375 2.95801 16.375C2.54405 16.3748 2.20818 16.039 2.20801 15.625C2.20809 14.0119 2.84967 12.465 3.99023 11.3242C4.49299 10.8215 5.07465 10.4148 5.70605 10.1182C4.79201 9.36914 4.20801 8.23183 4.20801 6.95801C4.20818 4.70321 6.03626 2.87535 8.29102 2.875ZM12.6797 3.70898C12.891 3.35273 13.3517 3.23501 13.708 3.44629C14.2852 3.78868 14.7694 4.26882 15.1172 4.84277C15.4648 5.41657 15.6658 6.06741 15.7021 6.7373C15.7385 7.40734 15.6088 8.07644 15.3252 8.68457C15.1701 9.01698 14.9692 9.32418 14.7334 9.60156C15.9724 10.8351 17.0418 12.8163 17.042 14.958C17.0419 15.3721 16.706 15.7078 16.292 15.708C15.8778 15.708 15.5421 15.3722 15.542 14.958C15.5418 12.981 14.3475 11.1052 13.1748 10.2256C12.986 10.084 12.8751 9.86099 12.875 9.625C12.875 9.38914 12.9862 9.16702 13.1748 9.02539C13.5144 8.77057 13.7863 8.43557 13.9658 8.05078C14.1452 7.66614 14.227 7.24314 14.2041 6.81934C14.1811 6.39542 14.054 5.98321 13.834 5.62012C13.614 5.25704 13.3075 4.95391 12.9424 4.7373C12.5861 4.52601 12.4684 4.06524 12.6797 3.70898ZM8.29102 4.375C6.86469 4.37535 5.70818 5.53164 5.70801 6.95801C5.70801 8.38453 6.86458 9.54164 8.29102 9.54199C9.71775 9.54199 10.875 8.38474 10.875 6.95801C10.8748 5.53142 9.71764 4.375 8.29102 4.375Z" fill="#8C868A"/>
</svg>
