<svg width="20" height="20" viewBox="0 0 20 20" fill="none" xmlns="http://www.w3.org/2000/svg">
<path d="M7.625 11.542C8.4074 11.542 9.04199 12.1766 9.04199 12.959V14.959C9.04164 15.7411 8.40719 16.375 7.625 16.375H4.29199C3.50981 16.375 2.87535 15.7411 2.875 14.959V12.959C2.875 12.1766 3.50959 11.542 4.29199 11.542H7.625ZM14.958 8.875C15.7404 8.875 16.375 9.50959 16.375 10.292V14.958C16.375 15.7404 15.7404 16.375 14.958 16.375H11.625C10.8427 16.3748 10.208 15.7403 10.208 14.958V10.292C10.208 9.5097 10.8427 8.87518 11.625 8.875H14.958ZM4.375 14.875H7.54199V13.042H4.375V14.875ZM11.708 14.875H14.875V10.375H11.708V14.875ZM7.625 2.875C8.4074 2.875 9.04199 3.50959 9.04199 4.29199V8.95801C9.04199 9.74041 8.4074 10.375 7.625 10.375H4.29199C3.50959 10.375 2.875 9.74041 2.875 8.95801V4.29199C2.875 3.50959 3.50959 2.875 4.29199 2.875H7.625ZM4.375 8.875H7.54199V4.375H4.375V8.875ZM14.958 2.875C15.7404 2.875 16.375 3.50959 16.375 4.29199V6.29199C16.3748 7.07425 15.7403 7.70801 14.958 7.70801H11.625C10.8429 7.70783 10.2082 7.07414 10.208 6.29199V4.29199C10.208 3.5097 10.8427 2.87518 11.625 2.875H14.958ZM11.708 6.20801H14.875V4.375H11.708V6.20801Z" fill="#E8E6E7"/>
</svg>
