<svg width="20" height="20" viewBox="0 0 20 20" fill="none" xmlns="http://www.w3.org/2000/svg">
<path d="M14.958 15.542C15.3722 15.542 15.708 15.8778 15.708 16.292V16.2988C15.7077 16.7128 15.3721 17.0488 14.958 17.0488C14.5441 17.0487 14.2083 16.7127 14.208 16.2988V16.292C14.208 15.8779 14.5439 15.5422 14.958 15.542ZM14.958 3.54199C15.5105 3.54199 16.04 3.76174 16.4307 4.15234C16.8213 4.54297 17.0409 5.07258 17.041 5.625V6.29688C17.041 6.30404 17.0413 6.3112 17.041 6.31836V8.625C17.0408 9.03906 16.7051 9.375 16.291 9.375C15.8772 9.37465 15.5412 9.03885 15.541 8.625V7.65625L10.7139 10.7246L10.71 10.7275C10.385 10.9311 10.0085 11.039 9.625 11.0391C9.24145 11.039 8.86508 10.9311 8.54004 10.7275L8.53613 10.7246L3.70801 7.65625V13.625C3.70819 13.9438 3.9723 14.2086 4.29102 14.209H12.625C13.0391 14.2092 13.375 14.5449 13.375 14.959C13.3746 15.3728 13.0388 15.7088 12.625 15.709H4.29102C3.14387 15.7086 2.20818 14.7722 2.20801 13.625V5.625C2.20809 5.07274 2.42794 4.54294 2.81836 4.15234C3.20891 3.7618 3.73872 3.54216 4.29102 3.54199H14.958ZM13.8896 10.4756C14.3048 10.2469 14.7836 10.1602 15.2529 10.2324C15.6764 10.2976 16.0697 10.4869 16.3828 10.7754L16.5117 10.9053L16.5586 10.9619C16.8079 11.2943 17.042 11.7178 17.042 12.2783C17.042 13.1123 16.4152 13.6416 16.0449 13.8916C15.8346 14.0336 15.6292 14.1384 15.4795 14.207C15.4036 14.2418 15.339 14.2685 15.292 14.2871C15.2685 14.2964 15.2489 14.3042 15.2344 14.3096C15.2275 14.3121 15.2214 14.3138 15.2168 14.3154C15.2144 14.3163 15.2117 14.3177 15.21 14.3184L15.208 14.3193H15.2061C14.8151 14.4562 14.3868 14.2503 14.25 13.8594C14.1135 13.469 14.3191 13.0417 14.709 12.9043H14.708C14.7086 12.9041 14.71 12.904 14.7119 12.9033C14.7169 12.9015 14.7263 12.8977 14.7393 12.8926C14.7652 12.8823 14.8054 12.8662 14.8545 12.8438C14.9547 12.7978 15.0823 12.7313 15.2051 12.6484C15.5015 12.4484 15.542 12.3108 15.542 12.2783C15.542 12.1784 15.5112 12.0761 15.3818 11.8965C15.2846 11.8001 15.1603 11.7357 15.0244 11.7148C14.8782 11.6924 14.7287 11.72 14.6006 11.7939C14.5876 11.8015 14.574 11.8087 14.5605 11.8154C14.5174 11.837 14.4473 11.8995 14.3721 12.0146L14.2578 12.2139C14.0544 12.5347 13.6373 12.6558 13.29 12.4824C12.9196 12.2972 12.7691 11.847 12.9541 11.4766C13.1148 11.1551 13.398 10.7398 13.8496 10.498V10.4961C13.8591 10.4906 13.8693 10.4858 13.8789 10.4805C13.8825 10.4786 13.886 10.4764 13.8896 10.4746V10.4756ZM4.29102 5.04199C4.13654 5.04216 3.98815 5.10365 3.87891 5.21289C3.76979 5.32218 3.70809 5.47056 3.70801 5.625V5.87988L9.33496 9.45605H9.33594C9.42231 9.51017 9.52308 9.539 9.625 9.53906C9.72677 9.539 9.8268 9.51002 9.91309 9.45605L15.541 5.87988V5.625C15.5409 5.47041 15.4794 5.32221 15.3701 5.21289C15.2607 5.1036 15.1126 5.04199 14.958 5.04199H4.29102Z" fill="#8C868A"/>
</svg>
