<svg width="14" height="13" viewBox="0 0 14 13" fill="none" xmlns="http://www.w3.org/2000/svg">
<path d="M12.8259 2.28992C12.8713 2.28994 12.9156 2.29487 12.9587 2.30261C12.9633 2.30343 12.9679 2.30367 12.9724 2.30457C12.9966 2.30936 13.0195 2.31802 13.0427 2.32507C13.0649 2.33178 13.0876 2.33678 13.1091 2.34558C13.1372 2.35706 13.1629 2.3729 13.1892 2.38757C13.2446 2.41849 13.2978 2.45482 13.3455 2.50085C13.3521 2.50726 13.3586 2.51375 13.365 2.52039C13.4052 2.56218 13.4379 2.60832 13.4666 2.65613C13.5342 2.76876 13.5759 2.899 13.5759 3.03992V6.66296C13.5756 7.07679 13.2398 7.41275 12.8259 7.41296C12.4119 7.41292 12.0762 7.0769 12.0759 6.66296V4.84949L8.22339 8.70203C7.93047 8.99466 7.45565 8.99483 7.16284 8.70203L4.67456 6.21375L1.28003 9.60828C0.987159 9.90068 0.512245 9.90085 0.219482 9.60828C-0.0731532 9.31552 -0.0729398 8.84062 0.219482 8.54773L4.14429 4.62292L4.20093 4.57117C4.49547 4.331 4.93026 4.34847 5.20483 4.62292L7.69312 7.11121L11.0144 3.78992H9.20288C8.78875 3.78988 8.45296 3.45404 8.45288 3.03992C8.45288 2.62573 8.7887 2.28996 9.20288 2.28992H12.8259Z" fill="#8C868A"/>
</svg>
