<svg width="20" height="20" viewBox="0 0 20 20" fill="none" xmlns="http://www.w3.org/2000/svg">
<path d="M9.625 2.20801C10.0391 2.20801 10.3748 2.54394 10.375 2.95801V3.58984C10.9342 3.6594 11.4786 3.80488 11.9932 4.02246L12.3096 3.47656C12.5169 3.11813 12.9755 2.99494 13.334 3.20215C13.6922 3.40937 13.8151 3.86811 13.6084 4.22656L13.292 4.77246C13.5146 4.94067 13.7272 5.1247 13.9268 5.32422C14.1259 5.5234 14.3086 5.73588 14.4766 5.95801L15.0234 5.64258C15.382 5.43551 15.8406 5.55847 16.0479 5.91699C16.2547 6.27552 16.1319 6.73423 15.7734 6.94141L15.2266 7.25684C15.4443 7.77149 15.5906 8.3156 15.6602 8.875H16.291L16.3682 8.87891C16.7463 8.91738 17.041 9.23672 17.041 9.625C17.041 10.0133 16.7463 10.3326 16.3682 10.3711L16.291 10.375H15.6602C15.5906 10.9344 15.4442 11.4785 15.2266 11.9932L15.7734 12.3096C16.1319 12.5169 16.2551 12.9755 16.0479 13.334C15.8406 13.6922 15.3819 13.8151 15.0234 13.6084L14.4766 13.292C14.3085 13.5143 14.1261 13.7274 13.9268 13.9268C13.7274 14.1261 13.5143 14.3085 13.292 14.4766L13.6084 15.0234C13.8151 15.3819 13.6922 15.8406 13.334 16.0479C12.9755 16.2551 12.5169 16.1319 12.3096 15.7734L11.9932 15.2266C11.4785 15.4442 10.9343 15.5896 10.375 15.6592V16.291L10.3711 16.3682C10.3326 16.7463 10.0133 17.041 9.625 17.041C9.23672 17.041 8.91738 16.7463 8.87891 16.3682L8.875 16.291V15.6602C8.3153 15.5905 7.77076 15.4445 7.25586 15.2266L6.94141 15.7734C6.73433 16.1319 6.27563 16.2547 5.91699 16.0479C5.5583 15.8408 5.43552 15.3822 5.64258 15.0234L5.95703 14.4766C5.73513 14.3087 5.52322 14.1257 5.32422 13.9268C5.1247 13.7272 4.94067 13.5146 4.77246 13.292L4.22656 13.6084C3.86811 13.8151 3.40937 13.6922 3.20215 13.334C2.99494 12.9755 3.11813 12.5169 3.47656 12.3096L4.02246 11.9932C3.80488 11.4786 3.6594 10.9342 3.58984 10.375H2.95801C2.54394 10.3748 2.20801 10.0391 2.20801 9.625C2.20801 9.21089 2.54394 8.87518 2.95801 8.875H3.58984C3.65938 8.31573 3.80485 7.77136 4.02246 7.25684L3.47656 6.94141C3.11814 6.73423 2.99532 6.27552 3.20215 5.91699C3.40938 5.55847 3.86799 5.43552 4.22656 5.64258L4.77246 5.95801C4.94063 5.73554 5.12475 5.52368 5.32422 5.32422C5.5235 5.12494 5.73479 4.9405 5.95703 4.77246L5.64258 4.22656C5.43553 3.86786 5.55834 3.40925 5.91699 3.20215C6.27565 2.99534 6.73436 3.11801 6.94141 3.47656L7.25586 4.02246C7.77063 3.80465 8.31543 3.65942 8.875 3.58984V2.95801C8.87518 2.54394 9.21089 2.20801 9.625 2.20801ZM11.5664 10.375C11.4627 10.6435 11.306 10.8913 11.0986 11.0986C10.708 11.4893 10.1774 11.7089 9.625 11.709C9.51669 11.709 9.4094 11.6972 9.30371 11.6807L8.01367 13.9141C8.52001 14.1044 9.06014 14.2064 9.61133 14.208H9.6377C10.8486 14.2046 12.0097 13.7227 12.8662 12.8662C13.5468 12.1856 13.9898 11.3123 14.1455 10.375H11.5664ZM6.71484 6.08398C6.60028 6.17816 6.49054 6.27899 6.38477 6.38477C5.5253 7.24423 5.04208 8.40954 5.04199 9.625C5.04208 10.8405 5.5253 12.0067 6.38477 12.8662C6.49025 12.9717 6.60062 13.0711 6.71484 13.165L8.00391 10.9316C7.70691 10.5631 7.54207 10.1027 7.54199 9.625C7.54207 9.14699 7.70651 8.68597 8.00391 8.31738L6.71484 6.08398ZM9.625 9.04199C9.47041 9.04208 9.32221 9.10357 9.21289 9.21289C9.10357 9.32221 9.04208 9.47041 9.04199 9.625C9.04208 9.77959 9.10357 9.92877 9.21289 10.0381C9.32216 10.1471 9.47064 10.2089 9.625 10.209C9.77959 10.2089 9.92877 10.1474 10.0381 10.0381C10.146 9.93015 10.2064 9.78335 10.208 9.63086V9.61816C10.2062 9.46616 10.1456 9.32062 10.0381 9.21289C9.92877 9.10357 9.77959 9.04208 9.625 9.04199ZM9.625 5.04199C9.06932 5.04203 8.52396 5.14317 8.01367 5.33496L9.30371 7.56836C9.40933 7.55185 9.51676 7.54201 9.625 7.54199C10.1774 7.54208 10.708 7.76172 11.0986 8.15234C11.3058 8.35961 11.4627 8.60684 11.5664 8.875H14.1455C13.9899 7.93791 13.5466 7.06533 12.8662 6.38477C12.0067 5.5253 10.8405 5.04208 9.625 5.04199Z" fill="#8C868A"/>
</svg>
